<svg xmlns="http://www.w3.org/2000/svg" width="1650" height="900" viewBox="0 0 1650 900" role="img" aria-labelledby="title desc">
  <title id="title">QQ Farm Studio dark command center interface</title>
  <desc id="desc">Dark navy workspace with mint accents, wide command rail, status cards, workflow controls, and live operation log.</desc>
  <defs>
    <linearGradient id="shell" x1="0" y1="0" x2="1" y2="1"><stop stop-color="#050814"/><stop offset="1" stop-color="#0a1324"/></linearGradient>
    <linearGradient id="mint" x1="0" y1="0" x2="1" y2="0"><stop stop-color="#65fbd2"/><stop offset="1" stop-color="#8cffdf"/></linearGradient>
    <filter id="shadow" x="-20%" y="-20%" width="140%" height="140%"><feDropShadow dx="0" dy="12" stdDeviation="18" flood-color="#000" flood-opacity=".34"/></filter>
  </defs>
  <rect width="1650" height="900" rx="30" fill="#02040a"/>
  <rect x="18" y="18" width="1614" height="864" rx="24" fill="url(#shell)" stroke="#22314a" filter="url(#shadow)"/>
  <rect x="18" y="18" width="190" height="864" rx="24" fill="#070c18"/>
  <path d="M208 18v864" stroke="#1a2840"/>

  <rect x="48" y="48" width="58" height="58" rx="17" fill="url(#mint)"/>
  <path d="M63 81c15-19 30-17 31-17-2 17-13 28-31 29 6-5 12-11 18-19-8 7-13 10-18 12z" fill="#050814"/>
  <text x="48" y="136" fill="#fff" font-family="Segoe UI,Microsoft YaHei UI,sans-serif" font-size="17" font-weight="800">FARM STUDIO</text>
  <text x="48" y="158" fill="#65758e" font-family="Segoe UI,sans-serif" font-size="11" letter-spacing="2">COMBATING123</text>

  <g font-family="Segoe UI,Microsoft YaHei UI,sans-serif" font-size="15" font-weight="700">
    <rect x="34" y="198" width="158" height="54" rx="14" fill="#65fbd2"/>
    <circle cx="58" cy="225" r="7" fill="#050814"/><path d="M69 225h17" stroke="#050814" stroke-width="3" stroke-linecap="round"/>
    <text x="92" y="231" fill="#050814">工作台</text>
    <rect x="34" y="264" width="158" height="54" rx="14" fill="transparent"/>
    <circle cx="58" cy="291" r="8" fill="none" stroke="#8292ad" stroke-width="2"/><path d="M58 278v6m0 14v6m-13-13h6m14 0h6" stroke="#8292ad" stroke-width="2"/>
    <text x="92" y="297" fill="#8fa0ba">自动化配置</text>
    <rect x="34" y="330" width="158" height="54" rx="14" fill="transparent"/>
    <path d="M49 360c7-12 15-12 22 0m-18-9a6 6 0 1 0 12 0" fill="none" stroke="#8292ad" stroke-width="2"/>
    <text x="92" y="363" fill="#8fa0ba">好友策略</text>
    <rect x="34" y="396" width="158" height="54" rx="14" fill="transparent"/>
    <path d="M58 410l12 5v9c0 9-5 14-12 18-7-4-12-9-12-18v-9z" fill="none" stroke="#8292ad" stroke-width="2"/>
    <text x="92" y="429" fill="#8fa0ba">守护中心</text>
  </g>
  <text x="48" y="828" fill="#65fbd2" font-family="Segoe UI,sans-serif" font-size="13" font-weight="700">github.com/combating123</text>

  <text x="244" y="74" fill="#fff" font-family="Segoe UI,Microsoft YaHei UI,sans-serif" font-size="22" font-weight="800">QQ Farm Studio</text>
  <text x="244" y="101" fill="#71819b" font-family="Segoe UI,sans-serif" font-size="12" letter-spacing="2">AUTOMATION COMMAND CENTER</text>
  <rect x="1430" y="48" width="154" height="36" rx="18" fill="#0d2725" stroke="#285c54"/>
  <circle cx="1452" cy="66" r="5" fill="#65fbd2"/>
  <text x="1467" y="71" fill="#65fbd2" font-family="Segoe UI,sans-serif" font-size="12" font-weight="800">STUDIO ACTIVE</text>

  <rect x="244" y="132" width="1340" height="90" rx="18" fill="#0a1222" stroke="#1d2c45"/>
  <text x="272" y="164" fill="#71819b" font-family="Segoe UI,Microsoft YaHei UI,sans-serif" font-size="12" letter-spacing="2">运行目标</text>
  <rect x="272" y="176" width="214" height="32" rx="9" fill="#0d1728" stroke="#263954"/>
  <text x="288" y="197" fill="#edf7ff" font-family="Segoe UI,Microsoft YaHei UI,sans-serif" font-size="14" font-weight="700">QQ 小程序</text>
  <path d="M464 189l6 6 6-6" fill="none" stroke="#65fbd2" stroke-width="2"/>
  <rect x="1162" y="154" width="172" height="46" rx="13" fill="#101b2e" stroke="#263954"/>
  <text x="1201" y="182" fill="#cbd8ea" font-family="Segoe UI,Microsoft YaHei UI,sans-serif" font-size="14" font-weight="700">等待连接</text>
  <rect x="1348" y="154" width="208" height="46" rx="13" fill="url(#mint)"/>
  <path d="M1377 168l14 9-14 9z" fill="#050814"/>
  <text x="1410" y="182" fill="#050814" font-family="Segoe UI,Microsoft YaHei UI,sans-serif" font-size="15" font-weight="800">启动工作流</text>

  <g font-family="Segoe UI,Microsoft YaHei UI,sans-serif">
    <g transform="translate(244 242)"><rect width="250" height="106" rx="16" fill="#0a1222" stroke="#1d2c45"/><rect x="18" y="19" width="42" height="42" rx="12" fill="#10263a"/><circle cx="39" cy="40" r="10" fill="none" stroke="#65fbd2" stroke-width="2"/><path d="M39 33v8l6 3" stroke="#65fbd2" stroke-width="2" fill="none"/><text x="76" y="37" fill="#8292ad" font-size="13">运行时间</text><text x="76" y="67" fill="#fff" font-size="24" font-weight="800">00:00:00</text></g>
    <g transform="translate(510 242)"><rect width="250" height="106" rx="16" fill="#0a1222" stroke="#1d2c45"/><rect x="18" y="19" width="42" height="42" rx="12" fill="#10263a"/><path d="M28 45h22M31 39h16M35 33h8" stroke="#65fbd2" stroke-width="3" stroke-linecap="round"/><text x="76" y="37" fill="#8292ad" font-size="13">播种次数</text><text x="76" y="67" fill="#fff" font-size="24" font-weight="800">0 次</text></g>
    <g transform="translate(776 242)"><rect width="250" height="106" rx="16" fill="#0a1222" stroke="#1d2c45"/><rect x="18" y="19" width="42" height="42" rx="12" fill="#10263a"/><path d="M39 53c-4-11 1-20 13-22-1 12-6 20-13 22zm0 0c-1-8-5-13-11-16" fill="none" stroke="#65fbd2" stroke-width="2"/><text x="76" y="37" fill="#8292ad" font-size="13">自家收获</text><text x="76" y="67" fill="#fff" font-size="24" font-weight="800">0 次</text></g>
    <g transform="translate(1042 242)"><rect width="250" height="106" rx="16" fill="#0a1222" stroke="#1d2c45"/><rect x="18" y="19" width="42" height="42" rx="12" fill="#10263a"/><path d="M29 50l8-11 7 6 8-13" fill="none" stroke="#65fbd2" stroke-width="2"/><text x="76" y="37" fill="#8292ad" font-size="13">好友农场</text><text x="76" y="67" fill="#fff" font-size="24" font-weight="800">0 次</text></g>
    <g transform="translate(1308 242)"><rect width="276" height="106" rx="16" fill="#0a1222" stroke="#1d2c45"/><rect x="18" y="19" width="42" height="42" rx="12" fill="#10263a"/><path d="M29 50h22M31 43l6-7 5 5 8-10" fill="none" stroke="#65fbd2" stroke-width="2"/><text x="76" y="37" fill="#8292ad" font-size="13">批量出售</text><text x="76" y="67" fill="#fff" font-size="24" font-weight="800">0 次</text></g>
  </g>

  <rect x="244" y="370" width="936" height="470" rx="18" fill="#0a1222" stroke="#1d2c45"/>
  <text x="274" y="410" fill="#fff" font-family="Segoe UI,Microsoft YaHei UI,sans-serif" font-size="17" font-weight="800">运行日志</text>
  <rect x="274" y="430" width="876" height="376" rx="13" fill="#060b15" stroke="#22324b"/>
  <g font-family="Cascadia Mono,Consolas,monospace" font-size="14">
    <text x="300" y="468" fill="#667894">00:00:01</text><text x="388" y="468" fill="#65fbd2">[ READY ]</text><text x="480" y="468" fill="#cbd8ea">工作台已加载，等待启动指令。</text>
    <text x="300" y="502" fill="#667894">00:00:02</text><text x="388" y="502" fill="#65fbd2">[ DATA  ]</text><text x="480" y="502" fill="#cbd8ea">便携设置已从 UserData 同步。</text>
    <text x="300" y="536" fill="#667894">00:00:03</text><text x="388" y="536" fill="#65fbd2">[ LINK  ]</text><text x="480" y="536" fill="#cbd8ea">运行目标：QQ 小程序。</text>
    <text x="300" y="570" fill="#667894">00:00:04</text><text x="388" y="570" fill="#f8c56a">[ IDLE  ]</text><text x="480" y="570" fill="#cbd8ea">点击“启动工作流”开始运行。</text>
  </g>
  <rect x="300" y="758" width="188" height="4" rx="2" fill="#65fbd2"/>

  <rect x="1200" y="370" width="384" height="470" rx="18" fill="#0a1222" stroke="#1d2c45"/>
  <text x="1230" y="410" fill="#fff" font-family="Segoe UI,Microsoft YaHei UI,sans-serif" font-size="17" font-weight="800">当前画面</text>
  <rect x="1230" y="430" width="324" height="306" rx="14" fill="#060b15" stroke="#22324b" stroke-dasharray="6 7"/>
  <circle cx="1392" cy="565" r="41" fill="#0d2725" stroke="#285c54"/>
  <path d="M1373 573c14-23 34-27 45-25-3 20-17 36-43 38 9-8 18-17 28-29-12 10-21 16-30 19z" fill="#65fbd2"/>
  <text x="1350" y="640" fill="#71819b" font-family="Segoe UI,Microsoft YaHei UI,sans-serif" font-size="14">等待画面输入</text>
  <rect x="1230" y="758" width="324" height="48" rx="12" fill="#101b2e" stroke="#263954"/>
  <text x="1326" y="788" fill="#cbd8ea" font-family="Segoe UI,Microsoft YaHei UI,sans-serif" font-size="14" font-weight="700">窗口联动</text>
</svg>
